<svg id="Layer_1" data-name="Layer 1" xmlns="http://www.w3.org/2000/svg" viewBox="0 0 199.4 199.3"><defs><style>.cls-1{fill:#cdcdcd;}</style></defs><title>octocat</title><path class="cls-1" d="M176.5,97.9v-.6a112.2,112.2,0,0,0-30.1-2.4c1.4-5,1.8-10.8,1.8-17.3a30.6,30.6,0,0,0-9.1-22.3c1-3.2,2.3-10.3-1.3-19.3,0,0-6.4-2-20.9,7.6a73.6,73.6,0,0,0-17.7-2.1,74.8,74.8,0,0,0-19.6,2.6C64.8,33.9,58.2,36,58.2,36c-4.3,10.8-1.6,18.7-.8,20.7a30,30,0,0,0-8.1,21,51.5,51.5,0,0,0,2.5,17.3,118.3,118.3,0,0,0-30.3,2.5v.6A118.1,118.1,0,0,1,52,95.5a31.3,31.3,0,0,0,1.3,3c-8.4.3-16.8,1.3-30.6,5.2l.2.6c13.9-3.9,22.4-5,30.8-5.2,5,9.4,15,15.5,32.6,17.4a14.5,14.5,0,0,0-6.1,9.4c-3.4,1.6-14.2,5.6-20.7-5.5,0,0-3.6-6.6-10.6-7.2,0,0-6.7-.1-.5,4.2,0,0,4.5,2.1,7.6,10.1,0,0,4.1,13.6,23.7,9.3v14.1s-.4,5-5,6.6c0,0-2.7,1.9.2,2.9,0,0,12.7,1,12.7-9.3V135.7s-.5-6.1,2.5-8.2v25.2s-.2,6-3.3,8.3c0,0-2.1,3.7,2.5,2.7,0,0,8.7-1.2,9.1-11.4l.2-25.5h2.1l.2,25.5c.4,10.2,9.1,11.4,9.1,11.4,4.6,1,2.5-2.7,2.5-2.7-3.1-2.3-3.3-8.3-3.3-8.3v-25c3,2.3,2.5,8,2.5,8v15.4c0,10.4,12.7,9.3,12.7,9.3,2.9-1,.2-2.9.2-2.9-4.6-1.7-5-6.6-5-6.6V130.7c0-7.9-3.3-12-6.5-14.2,18.8-1.9,27.9-8,32.1-17.4,8.3.2,16.9,1.2,31.1,5.2l.2-.6c-14.1-4-22.7-5-31-5.3a31.2,31.2,0,0,0,1-3,112.6,112.6,0,0,1,30.2,2.4Zm-120,22.6c-.7,0-1.3-.4-1.3-.9s.6-.9,1.3-.9,1.3.4,1.3.9S57.3,120.6,56.6,120.6Zm1.3-.9h0Zm.7,4c-.7,0-1.3-.4-1.3-.9s.6-.9,1.3-.9,1.3.4,1.3.9S59.4,123.7,58.6,123.7Zm1.4-.9h0Zm-8.1-7.9c0,.5-.6.9-1.3.9s-1.3-.4-1.3-.9.6-.9,1.3-.9S51.9,114.3,51.9,114.9Zm10.4,10.8h0ZM51.9,114.9h0Zm3.7,2.1h0Zm-1.3.9c-.7,0-1.3-.4-1.3-.9s.6-.9,1.3-.9,1.3.4,1.3.9S55,117.9,54.3,117.9Zm11.1,10.3c0,.5-.6.9-1.3.9s-1.3-.4-1.3-.9.6-.9,1.3-.9S65.4,127.6,65.4,128.2Zm-3.1-2.5c0,.5-.6.9-1.3.9s-1.3-.4-1.3-.9.6-.9,1.3-.9S62.3,125.1,62.3,125.7Zm11.8,4.2c0,.5-.6.9-1.3.9s-1.3-.4-1.3-.9.6-.9,1.3-.9S74.1,129.3,74.1,129.8Zm4.4-.7c0,.5-.6.9-1.3.9s-1.3-.4-1.3-.9.6-.9,1.3-.9S78.5,128.6,78.5,129.1Zm0,0h0Zm-4.4.7h0Zm-8.7-1.7h0Zm4.4,1.7h0Zm0,0c0,.5-.6.9-1.3.9s-1.3-.4-1.3-.9.6-.9,1.3-.9S69.7,129.3,69.7,129.8Z"/><path class="cls-1" d="M99.6,0a99.9,99.9,0,1,0,99.9,99.9A99.9,99.9,0,0,0,99.6,0Zm0,189.7a89.9,89.9,0,1,1,89.9-89.9A90,90,0,0,1,99.6,189.7Z"/></svg>